<svg width="231" height="242" viewBox="0 0 231 242" fill="none" xmlns="http://www.w3.org/2000/svg">
<path d="M40.5587 231.948C40.41 232.283 40.0755 232.468 39.7409 232.468C39.6108 232.468 39.4806 232.45 39.3691 232.394C37.7148 231.632 36.0977 230.833 34.5177 229.996C34.0716 229.755 33.9044 229.216 34.146 228.77C34.3876 228.323 34.9267 228.156 35.3728 228.398C36.897 229.216 38.4955 230.015 40.1126 230.758C40.5587 230.963 40.7632 231.502 40.5587 231.948ZM37.3988 91.4255C37.7148 91.0352 37.6405 90.459 37.2501 90.1616C36.8598 89.8456 36.2836 89.9199 35.9862 90.3103C34.8523 91.7229 33.7557 93.1356 32.6962 94.5483C32.3988 94.9386 32.4731 95.5148 32.8635 95.8122C33.0307 95.9423 33.2166 95.9981 33.4025 95.9981C33.6813 95.9981 33.9415 95.868 34.1274 95.6449C35.1869 94.2509 36.2836 92.8382 37.3988 91.4441V91.4255ZM30.8002 225.74C29.2946 224.792 27.8262 223.788 26.4321 222.766C26.0232 222.468 25.4656 222.561 25.1682 222.952C24.8708 223.361 24.9637 223.918 25.354 224.216C26.7853 225.275 28.2909 226.297 29.8337 227.264C29.9824 227.357 30.1497 227.394 30.3169 227.394C30.6143 227.394 30.9117 227.245 31.079 226.967C31.3393 226.539 31.2277 225.981 30.8002 225.721V225.74ZM24.6105 107.429C24.2016 107.151 23.6254 107.281 23.3652 107.69C22.3614 109.214 21.3949 110.719 20.4655 112.225C20.2053 112.653 20.3354 113.21 20.7629 113.47C20.9116 113.563 21.0789 113.601 21.2462 113.601C21.5436 113.601 21.841 113.452 22.0083 113.173C22.9377 111.686 23.8856 110.18 24.8708 108.675C25.1496 108.266 25.0381 107.69 24.6105 107.429ZM18.4952 215.851C18.142 215.498 17.5658 215.479 17.2127 215.851C16.8595 216.204 16.8409 216.781 17.2127 217.134C18.458 218.416 19.7778 219.662 21.1532 220.851C21.3205 221 21.5436 221.074 21.748 221.074C22.0083 221.074 22.2499 220.963 22.4358 220.758C22.7704 220.387 22.7146 219.81 22.3429 219.476C21.0045 218.323 19.722 217.096 18.5138 215.851H18.4952ZM49.9641 73.9903C48.7373 75.3287 47.5477 76.6484 46.3581 77.9681C46.0235 78.3399 46.0607 78.9161 46.4324 79.2506C46.5997 79.3993 46.8228 79.4737 47.0272 79.4737C47.2689 79.4737 47.5291 79.3622 47.6964 79.1763C48.8674 77.8566 50.057 76.5368 51.2652 75.2171C51.5998 74.8454 51.5812 74.2692 51.2094 73.9346C50.8377 73.6 50.2615 73.6186 49.9269 73.9903H49.9641ZM60.243 237.301C58.4958 236.929 56.7671 236.502 55.0757 236.056C54.5924 235.907 54.0905 236.223 53.9604 236.688C53.8303 237.171 54.1277 237.673 54.611 237.785C56.321 238.249 58.0869 238.658 59.8527 239.048C59.9085 239.048 59.9828 239.067 60.0386 239.067C60.4475 239.067 60.8378 238.77 60.9308 238.361C61.0423 237.877 60.7263 237.394 60.243 237.283V237.301ZM44.109 81.9273C43.7372 81.6113 43.161 81.6484 42.8264 82.0202C41.6554 83.3957 40.503 84.7712 39.3691 86.1281C39.0531 86.5184 39.1089 87.076 39.4806 87.4106C39.6479 87.5407 39.8524 87.6151 40.0569 87.6151C40.3171 87.6151 40.5773 87.5035 40.7632 87.2805C41.8785 85.9236 43.0309 84.5667 44.2019 83.1912C44.5179 82.8195 44.4807 82.2433 44.109 81.9087V81.9273ZM66.2097 58.637C65.8565 58.2838 65.2803 58.2652 64.9271 58.6184C63.626 59.8823 62.362 61.1277 61.0981 62.3731C60.7449 62.7262 60.7449 63.3025 61.0981 63.6556C61.2653 63.8415 61.507 63.9158 61.73 63.9158C61.9531 63.9158 62.1947 63.8229 62.362 63.6556C63.6074 62.4103 64.8713 61.1649 66.1725 59.9195C66.5256 59.5663 66.5442 58.9901 66.1911 58.637H66.2097ZM50.0012 234.569C48.2912 234.011 46.6183 233.416 45.0012 232.803C44.5365 232.617 44.016 232.859 43.8302 233.323C43.6443 233.788 43.8859 234.309 44.3506 234.495C45.9863 235.126 47.6964 235.74 49.4436 236.298C49.5366 236.335 49.6295 236.335 49.7224 236.335C50.1128 236.335 50.4659 236.093 50.5775 235.703C50.7262 235.219 50.4659 234.718 50.0012 234.569ZM54.9456 71.3137C56.1538 70.0312 57.3805 68.7486 58.6445 67.4661C58.9977 67.1129 58.9791 66.5367 58.6445 66.1835C58.2913 65.8304 57.7151 65.849 57.3619 66.1835C56.098 67.4847 54.8526 68.7672 53.6444 70.0498C53.3098 70.4215 53.3098 70.9791 53.6816 71.3323C53.8489 71.4996 54.0719 71.5739 54.295 71.5739C54.5366 71.5739 54.7783 71.481 54.9456 71.2951V71.3137ZM0.892727 173.657C1.39459 173.657 1.78493 173.267 1.80352 172.765C1.80352 171.018 1.89646 169.252 2.02657 167.486C2.06375 166.984 1.692 166.557 1.19013 166.52C0.706851 166.501 0.260748 166.854 0.223573 167.356C0.0748717 169.159 0.000521224 170.981 -0.0180664 172.765C-0.0180664 173.267 0.372274 173.676 0.87414 173.676L0.892727 173.657ZM2.50985 183.286C2.24962 181.576 2.06375 179.81 1.95222 178.044C1.91505 177.542 1.48753 177.17 0.985666 177.207C0.4838 177.245 0.112047 177.672 0.149222 178.174C0.260748 179.977 0.465212 181.799 0.725439 183.564C0.799789 184.011 1.17154 184.345 1.61765 184.345C1.65482 184.345 1.71058 184.345 1.74776 184.345C2.24962 184.271 2.5842 183.806 2.50985 183.323V183.286ZM1.59906 162.988C1.59906 162.988 1.692 162.988 1.72917 162.988C2.17527 162.988 2.56561 162.653 2.62138 162.207C2.86302 160.497 3.16042 158.731 3.51358 156.984C3.60652 156.501 3.29053 156.018 2.80725 155.925C2.32397 155.832 1.8407 156.148 1.74776 156.631C1.39459 158.415 1.0786 160.2 0.836965 161.947C0.762614 162.449 1.11578 162.895 1.59906 162.969V162.988ZM3.60652 152.486C3.60652 152.486 3.75522 152.523 3.82957 152.523C4.2385 152.523 4.59167 152.244 4.70319 151.854C5.13071 150.181 5.63257 148.452 6.17161 146.761C6.32032 146.278 6.06009 145.776 5.57681 145.627C5.09353 145.478 4.59167 145.739 4.44297 146.222C3.90392 147.951 3.40206 149.698 2.95595 151.408C2.82584 151.891 3.12324 152.393 3.60652 152.504V152.486ZM27.1199 104.641C27.3987 104.641 27.6961 104.511 27.8634 104.251C28.8671 102.82 29.8894 101.37 30.9489 99.9015C31.2463 99.4926 31.1534 98.9349 30.7445 98.6375C30.3355 98.3401 29.7779 98.4331 29.4805 98.842C28.4024 100.31 27.3801 101.76 26.3764 103.229C26.0976 103.638 26.1905 104.195 26.5994 104.493C26.7481 104.604 26.934 104.66 27.1199 104.66V104.641ZM11.8594 207.691C11.5806 207.282 11.023 207.171 10.5955 207.45C10.1865 207.728 10.075 208.286 10.3538 208.713C11.3576 210.2 12.4542 211.669 13.5881 213.063C13.774 213.286 14.0342 213.398 14.2944 213.398C14.4989 213.398 14.7033 213.323 14.8706 213.193C15.261 212.877 15.3167 212.301 15.0007 211.929C13.8855 210.572 12.826 209.141 11.8594 207.71V207.691ZM10.7256 132.337C10.8557 132.393 10.9672 132.411 11.0973 132.411C11.4505 132.411 11.7665 132.207 11.9152 131.891C12.6401 130.311 13.4022 128.712 14.2015 127.095C14.4245 126.649 14.2386 126.11 13.7925 125.887C13.3464 125.664 12.8074 125.85 12.5843 126.296C11.7665 127.932 10.9858 129.549 10.2609 131.147C10.0564 131.593 10.2609 132.132 10.707 132.337H10.7256ZM3.51358 188.472C3.40206 187.988 2.91878 187.672 2.4355 187.802C1.95222 187.914 1.65482 188.397 1.76635 188.88C2.17527 190.646 2.67714 192.412 3.23477 194.104C3.36488 194.475 3.71805 194.717 4.0898 194.717C4.18274 194.717 4.27568 194.717 4.36861 194.68C4.8333 194.531 5.09353 194.011 4.94483 193.546C4.40579 191.892 3.92251 190.182 3.51358 188.472ZM9.31292 135.59C8.84823 135.404 8.32778 135.627 8.1419 136.073C7.45416 137.764 6.80359 139.437 6.1902 141.092C6.02291 141.556 6.26455 142.077 6.72924 142.244C6.82218 142.281 6.93371 142.3 7.04523 142.3C7.41699 142.3 7.77015 142.077 7.90026 141.705C8.49507 140.069 9.12705 138.415 9.81479 136.742C10.0007 136.277 9.77761 135.757 9.33151 135.571L9.31292 135.59ZM6.80359 198.472C6.59913 198.007 6.07868 197.803 5.61399 198.007C5.14929 198.211 4.94483 198.732 5.14929 199.197C5.87421 200.851 6.67348 202.487 7.5471 204.085C7.71439 204.383 8.01179 204.55 8.34637 204.55C8.49507 204.55 8.64377 204.513 8.77388 204.438C9.21999 204.197 9.36869 203.658 9.12705 203.212C8.2906 201.669 7.50992 200.089 6.80359 198.49V198.472ZM18.9599 116.5C18.5324 116.24 17.9748 116.389 17.7145 116.835C16.8037 118.415 15.9301 119.976 15.0751 121.519C14.8334 121.965 15.0007 122.504 15.4468 122.746C15.577 122.82 15.7257 122.857 15.8744 122.857C16.1903 122.857 16.5063 122.69 16.6736 122.393C17.5101 120.85 18.3837 119.307 19.2759 117.746C19.5361 117.318 19.3874 116.76 18.9413 116.519L18.9599 116.5ZM193.163 209.754C191.602 210.628 190.04 211.464 188.479 212.301C188.033 212.543 187.866 213.082 188.107 213.528C188.275 213.825 188.591 214.011 188.907 214.011C189.055 214.011 189.204 213.974 189.334 213.899C190.895 213.063 192.475 212.208 194.055 211.334C194.483 211.093 194.65 210.535 194.409 210.108C194.167 209.68 193.609 209.513 193.182 209.754H193.163ZM174.129 219.401C172.494 220.145 170.877 220.87 169.259 221.576C168.795 221.781 168.59 222.301 168.795 222.766C168.943 223.1 169.278 223.305 169.631 223.305C169.743 223.305 169.873 223.286 169.984 223.23C171.62 222.524 173.256 221.781 174.892 221.037C175.338 220.833 175.542 220.294 175.338 219.847C175.133 219.401 174.594 219.197 174.148 219.401H174.129ZM183.739 214.754C182.141 215.572 180.542 216.353 178.962 217.115C178.516 217.338 178.33 217.877 178.535 218.323C178.683 218.639 179.018 218.825 179.353 218.825C179.483 218.825 179.613 218.788 179.743 218.732C181.341 217.952 182.94 217.171 184.557 216.353C185.003 216.13 185.17 215.591 184.947 215.145C184.724 214.699 184.185 214.513 183.739 214.754ZM144.296 230.907C142.586 231.446 140.876 231.948 139.185 232.431C138.701 232.561 138.423 233.063 138.571 233.547C138.683 233.937 139.055 234.197 139.445 234.197C139.519 234.197 139.612 234.197 139.687 234.16C141.397 233.677 143.107 233.156 144.835 232.617C145.319 232.468 145.579 231.967 145.43 231.483C145.281 231 144.78 230.74 144.296 230.889V230.907ZM164.352 223.658C162.698 224.346 161.044 224.996 159.389 225.628C158.925 225.814 158.683 226.335 158.869 226.799C158.999 227.152 159.352 227.375 159.705 227.375C159.817 227.375 159.928 227.357 160.04 227.32C161.694 226.688 163.367 226.019 165.021 225.331C165.486 225.145 165.709 224.606 165.505 224.16C165.319 223.695 164.78 223.472 164.334 223.677L164.352 223.658ZM154.408 227.506C152.716 228.119 151.044 228.695 149.371 229.271C148.906 229.439 148.646 229.941 148.795 230.424C148.925 230.796 149.278 231.037 149.65 231.037C149.742 231.037 149.835 231.037 149.947 230.981C151.638 230.405 153.33 229.829 155.021 229.216C155.486 229.048 155.728 228.528 155.56 228.063C155.393 227.598 154.873 227.357 154.408 227.524V227.506ZM202.401 204.401C200.858 205.331 199.334 206.223 197.81 207.115C197.383 207.357 197.234 207.914 197.475 208.342C197.643 208.639 197.94 208.788 198.256 208.788C198.405 208.788 198.572 208.751 198.702 208.658C200.245 207.765 201.788 206.855 203.331 205.925C203.758 205.665 203.888 205.107 203.647 204.68C203.386 204.252 202.829 204.122 202.401 204.364V204.401ZM220.283 192.747C218.814 193.769 217.346 194.773 215.877 195.776C215.468 196.055 215.357 196.613 215.636 197.04C215.803 197.301 216.1 197.431 216.379 197.431C216.546 197.431 216.732 197.375 216.881 197.282C218.349 196.278 219.836 195.275 221.305 194.234C221.714 193.955 221.807 193.379 221.528 192.97C221.249 192.561 220.673 192.468 220.264 192.747H220.283ZM230.19 186.669C229.892 186.278 229.316 186.185 228.926 186.483C227.495 187.561 226.063 188.602 224.632 189.643C224.223 189.94 224.13 190.498 224.428 190.907C224.613 191.148 224.874 191.278 225.152 191.278C225.338 191.278 225.524 191.223 225.692 191.111C227.123 190.07 228.573 189.011 230.004 187.933C230.394 187.635 230.487 187.059 230.19 186.669ZM211.435 198.732C209.929 199.717 208.442 200.665 206.937 201.613C206.509 201.873 206.379 202.431 206.658 202.858C206.825 203.137 207.122 203.286 207.42 203.286C207.587 203.286 207.754 203.249 207.903 203.156C209.409 202.208 210.914 201.241 212.42 200.256C212.847 199.977 212.959 199.42 212.68 199.011C212.401 198.602 211.844 198.472 211.435 198.751V198.732ZM81.34 239.959C79.5556 239.885 77.7897 239.773 76.0239 239.625C75.5035 239.55 75.0945 239.959 75.0574 240.443C75.0202 240.944 75.3919 241.372 75.8752 241.409C77.641 241.558 79.444 241.669 81.247 241.744H81.2842C81.7675 241.744 82.1578 241.372 82.195 240.889C82.2136 240.387 81.8233 239.959 81.34 239.941V239.959ZM90.0018 38.4508C90.3922 38.1348 90.4293 37.5586 90.1133 37.1683C89.7974 36.7965 89.2211 36.7407 88.8308 37.0567C87.4553 38.2277 86.0984 39.3802 84.7601 40.5326C84.3884 40.8672 84.3326 41.4248 84.6672 41.8152C84.8531 42.0196 85.0947 42.1311 85.3549 42.1311C85.5594 42.1311 85.7824 42.0568 85.9497 41.9081C87.288 40.7557 88.6449 39.6032 90.0204 38.4322L90.0018 38.4508ZM80.708 44.0643C79.3511 45.2539 78.0128 46.4435 76.7117 47.6331C76.3399 47.9677 76.3027 48.5439 76.6373 48.9156C76.8232 49.1201 77.0648 49.213 77.3065 49.213C77.5295 49.213 77.734 49.1387 77.9199 48.99C79.221 47.8004 80.5593 46.6294 81.9162 45.4397C82.288 45.1052 82.3251 44.5475 81.9906 44.1572C81.656 43.7854 81.0798 43.7483 80.708 44.0829V44.0643ZM134.036 233.825C132.307 234.271 130.579 234.699 128.869 235.108C128.385 235.219 128.088 235.703 128.199 236.186C128.292 236.595 128.664 236.892 129.073 236.892C129.147 236.892 129.203 236.892 129.277 236.874C131.006 236.465 132.753 236.037 134.501 235.591C134.984 235.461 135.281 234.978 135.151 234.495C135.021 234.011 134.519 233.714 134.055 233.844L134.036 233.825ZM91.9721 240.034C90.5966 240.071 89.2397 240.089 87.9014 240.089H86.656C86.1914 240.015 85.7453 240.48 85.7453 240.982C85.7453 241.483 86.1356 241.892 86.6375 241.892H87.9014C89.2583 241.892 90.6338 241.892 92.0279 241.837C92.5297 241.837 92.9201 241.409 92.9015 240.907C92.9015 240.405 92.4926 240.034 91.9721 240.034ZM70.745 239.067C68.9606 238.844 67.2134 238.584 65.4847 238.305C65.0015 238.231 64.5182 238.547 64.4438 239.048C64.3509 239.55 64.6855 240.015 65.1873 240.089C66.9346 240.387 68.719 240.647 70.522 240.87C70.5592 240.87 70.5963 240.87 70.6335 240.87C71.0796 240.87 71.47 240.536 71.5257 240.071C71.5815 239.569 71.2283 239.123 70.745 239.067ZM72.7525 51.2391C71.4328 52.4659 70.1131 53.6927 68.8305 54.9009C68.4773 55.254 68.4588 55.8116 68.7933 56.1834C68.9792 56.3693 69.2023 56.4622 69.4439 56.4622C69.667 56.4622 69.89 56.3879 70.0573 56.2206C71.3398 55.0124 72.641 53.7856 73.9607 52.5774C74.3325 52.2428 74.351 51.6666 74.0165 51.2948C73.6819 50.9231 73.1057 50.9045 72.7339 51.2391H72.7525ZM113.181 238.119C111.415 238.379 109.649 238.621 107.902 238.844C107.4 238.9 107.047 239.346 107.121 239.848C107.177 240.312 107.567 240.647 108.013 240.647C108.05 240.647 108.088 240.647 108.125 240.647C109.891 240.443 111.656 240.201 113.459 239.922C113.961 239.848 114.296 239.383 114.222 238.9C114.147 238.398 113.701 238.063 113.199 238.138L113.181 238.119ZM123.664 236.242C121.917 236.595 120.17 236.948 118.422 237.245C117.939 237.338 117.604 237.803 117.697 238.286C117.772 238.732 118.162 239.03 118.59 239.03C118.645 239.03 118.701 239.03 118.757 239.03C120.504 238.714 122.27 238.379 124.036 238.008C124.519 237.915 124.835 237.431 124.742 236.929C124.649 236.446 124.166 236.13 123.683 236.223L123.664 236.242ZM98.3662 30.3466C98.0503 29.9563 97.4741 29.9005 97.1023 30.2165C95.7082 31.3503 94.3141 32.4842 92.9573 33.618C92.5669 33.934 92.5112 34.5102 92.8457 34.9006C93.0316 35.1236 93.2918 35.2351 93.5521 35.2351C93.7565 35.2351 93.961 35.1608 94.1283 35.0307C95.4852 33.8968 96.8607 32.7816 98.2547 31.6477C98.6451 31.3317 98.7008 30.7555 98.3848 30.3838L98.3662 30.3466ZM102.586 239.402C100.801 239.569 99.0354 239.699 97.2696 239.792C96.7677 239.829 96.396 240.257 96.4146 240.74C96.4517 241.223 96.8421 241.595 97.3068 241.595H97.3625C99.1283 241.483 100.931 241.353 102.734 241.186C103.236 241.149 103.589 240.703 103.552 240.201C103.515 239.699 103.069 239.364 102.567 239.383L102.586 239.402Z" fill="#FF5722"/>
<path d="M129.185 8.59913C132.902 5.62511 136.936 1.33137 136.285 0.532102C135.634 -0.267166 130.56 2.70685 126.842 5.69946C126.508 5.97827 126.173 6.2385 125.857 6.49873C125.207 6.3872 123.85 6.16415 122.121 5.88534C122.14 5.88534 122.177 5.88534 122.196 5.88534L123.199 5.08607C123.329 4.99313 123.329 4.78867 123.199 4.65855L122.419 3.692C122.307 3.5433 122.121 3.50612 121.991 3.61765L120.987 4.41691C120.987 4.41691 120.913 4.52844 120.894 4.60279L119.723 5.53217C118.255 5.29053 116.656 5.03031 115.077 4.77008L116.062 3.9894C116.192 3.89646 116.192 3.692 116.062 3.56188L115.281 2.59533C115.169 2.44663 114.984 2.40945 114.853 2.52098L113.85 3.32025C113.85 3.32025 113.775 3.43177 113.757 3.50612L112.623 4.39833C108.608 3.74776 105.244 3.22731 105.132 3.26448C104.853 3.35742 103.422 4.5842 103.422 4.5842C103.069 4.86302 102.827 5.12325 102.846 5.16042C102.883 5.1976 103.292 4.91878 103.627 4.65855L111.006 7.35376C110.746 7.5954 110.597 7.81845 110.653 7.8928C110.727 7.98574 111.062 7.81845 111.396 7.53964L111.433 7.50246L112.883 8.0415C112.642 8.26455 112.493 8.48761 112.549 8.56196C112.623 8.6549 112.958 8.48761 113.292 8.20879L114.612 8.67348L115.411 9.2497C115.114 9.50992 114.909 9.77015 114.965 9.8445C115.039 9.93744 115.374 9.77015 115.708 9.49134H115.727L117.307 10.6066C117.01 10.8668 116.805 11.1271 116.88 11.2014C116.954 11.2943 117.288 11.127 117.623 10.8482L119.073 11.8891C116.601 13.9152 115.634 14.733 113.794 16.2201C111.935 17.7071 110.244 19.2684 108.887 20.6625C106.693 20.3279 102.363 19.603 102.363 19.603L101.247 20.3465L105.95 23.9897C105.69 24.3429 105.485 24.6217 105.374 24.8447C104.649 25.5139 104.221 25.96 104.277 26.0343C104.333 26.1087 104.853 25.8113 105.634 25.2536C105.876 25.1793 106.21 25.012 106.638 24.8075L109.184 30.2537L110.169 29.3429C110.169 29.3429 110.43 24.6588 110.578 22.5213C112.177 21.5175 113.998 20.3279 115.894 19.0082C118.199 17.168 119.24 16.3873 121.378 14.7145L122.065 16.3502C121.712 16.6476 121.489 16.9264 121.564 17.0193C121.619 17.0937 121.917 16.9636 122.251 16.7219L123.013 18.5249H122.995C122.642 18.8223 122.419 19.1197 122.493 19.1941C122.549 19.2684 122.865 19.1383 123.181 18.8967L123.571 19.7889L123.757 21.183C123.404 21.4618 123.181 21.7592 123.255 21.8521C123.311 21.9265 123.552 21.8335 123.831 21.6291L124.036 23.1718H123.999C123.645 23.4692 123.422 23.7666 123.497 23.8596C123.552 23.9339 123.813 23.8224 124.092 23.6179L125.095 31.4062C124.779 31.685 124.408 32.0195 124.426 32.0567C124.463 32.0939 124.761 31.908 125.114 31.6292C125.114 31.6292 126.638 30.4954 126.768 30.2537C126.824 30.1608 127.047 26.7592 127.307 22.7071L128.441 21.8149C128.441 21.8149 128.59 21.8149 128.645 21.7778L129.649 20.9785C129.779 20.8856 129.779 20.6811 129.649 20.551L128.869 19.5844C128.757 19.4357 128.571 19.3985 128.441 19.5101L127.456 20.2908C127.549 18.6922 127.642 17.0937 127.735 15.5881L128.906 14.6587C128.906 14.6587 129.054 14.6587 129.11 14.6215L130.114 13.8223C130.244 13.7293 130.244 13.5249 130.114 13.3947L129.333 12.4282C129.222 12.2795 129.036 12.2423 128.906 12.3538L127.902 13.1531C127.902 13.1531 127.902 13.1903 127.865 13.2275C127.976 11.4988 128.051 10.1419 128.088 9.47275C128.404 9.21252 128.738 8.9523 129.092 8.67348L129.185 8.59913Z" fill="#FF5722"/>
</svg>
