<svg width="171" height="244" viewBox="0 0 171 244" fill="none" xmlns="http://www.w3.org/2000/svg">
<path d="M76.5746 43.7366C75.1247 42.7329 73.6563 41.7292 72.1693 40.744C71.7604 40.4652 71.6302 39.9076 71.9091 39.4986C72.1879 39.0897 72.7455 38.9596 73.1545 39.2384C74.6601 40.2236 76.147 41.2273 77.5969 42.2496C78.0058 42.5284 78.1174 43.1046 77.82 43.5136C77.6527 43.7738 77.3552 43.9039 77.0764 43.9039C76.8905 43.9039 76.7233 43.8482 76.556 43.7366H76.5746ZM68.6562 36.3202C67.1506 35.3722 65.6265 34.4242 64.0837 33.4948C63.6562 33.2346 63.0986 33.3647 62.8383 33.8108C62.5781 34.2384 62.7268 34.796 63.1543 35.0562C64.6785 35.9856 66.2027 36.915 67.6897 37.8629C67.8384 37.9559 68.0057 38.0116 68.173 38.0116C68.4704 38.0116 68.7678 37.8629 68.9351 37.5841C69.1953 37.1566 69.0837 36.599 68.6562 36.3388V36.3202ZM102.225 63.867C102.467 63.867 102.709 63.7741 102.895 63.5696C103.229 63.1979 103.211 62.6217 102.839 62.2871C101.519 61.0975 100.181 59.9079 98.824 58.7183C98.4522 58.3837 97.876 58.4394 97.5414 58.8112C97.2068 59.1829 97.2626 59.7592 97.6343 60.0937C98.9912 61.2648 100.311 62.4544 101.612 63.644C101.779 63.8113 102.002 63.8856 102.225 63.8856V63.867ZM95.2923 227.661C93.8239 226.732 92.3369 225.765 90.8313 224.762C90.4224 224.483 89.8647 224.594 89.5673 225.003C89.2885 225.412 89.4 225.97 89.809 226.267C91.3331 227.289 92.8388 228.275 94.3072 229.204C94.4559 229.297 94.6231 229.334 94.7904 229.334C95.0878 229.334 95.3852 229.185 95.5525 228.907C95.8128 228.479 95.6827 227.921 95.2737 227.661H95.2923ZM59.4554 30.7996C57.9126 29.9074 56.3512 29.0338 54.7713 28.1788C54.3252 27.9371 53.7862 28.1044 53.5445 28.5319C53.3029 28.9781 53.4701 29.5171 53.8976 29.7587C55.459 30.6138 57.0204 31.4874 58.5445 32.361C58.6932 32.4353 58.842 32.4725 58.9907 32.4725C59.3067 32.4725 59.6041 32.3052 59.7713 32.0264C60.013 31.5989 59.8643 31.0413 59.4368 30.7996H59.4554ZM94.1399 56.8595C94.4001 56.8595 94.6604 56.748 94.8276 56.5249C95.1436 56.1346 95.0879 55.5769 94.7161 55.261C93.3406 54.1271 91.9651 52.9933 90.5524 51.878C90.1621 51.5806 89.5859 51.6364 89.2885 52.0267C88.9725 52.417 89.0469 52.9933 89.4372 53.2907C90.8313 54.4059 92.2068 55.5212 93.5822 56.655C93.7495 56.8037 93.954 56.8595 94.1585 56.8595H94.1399ZM82.188 218.535C81.7977 218.237 81.2215 218.312 80.9241 218.702C80.6267 219.092 80.701 219.669 81.0914 219.966C82.5412 221.081 83.991 222.141 85.4037 223.163C85.571 223.275 85.7569 223.33 85.9241 223.33C86.203 223.33 86.4818 223.2 86.6491 222.959C86.9465 222.55 86.8535 221.992 86.4446 221.695C85.0319 220.672 83.6007 219.613 82.1695 218.516L82.188 218.535ZM85.1993 50.0192C85.3665 50.1494 85.5524 50.2051 85.7383 50.2051C86.0171 50.2051 86.2773 50.075 86.4632 49.852C86.7606 49.4616 86.6863 48.8854 86.2959 48.588C84.8833 47.5099 83.4334 46.4504 81.9836 45.3909C81.5932 45.0935 81.017 45.1865 80.7196 45.5954C80.4222 46.0043 80.5151 46.5619 80.9241 46.8593C82.3739 47.9003 83.8052 48.9598 85.1993 50.0378V50.0192ZM73.8608 211.862C73.4705 211.546 72.9128 211.583 72.5782 211.973C72.2623 212.364 72.2994 212.921 72.6898 213.256C74.0838 214.427 75.4779 215.561 76.8348 216.657C77.0021 216.787 77.2066 216.862 77.3924 216.862C77.6527 216.862 77.9129 216.75 78.0988 216.527C78.4148 216.137 78.3404 215.561 77.95 215.263C76.5931 214.167 75.2177 213.051 73.8236 211.88L73.8608 211.862ZM165.498 166.229C165.925 167.976 166.316 169.705 166.669 171.415C166.762 171.843 167.134 172.14 167.561 172.14C167.617 172.14 167.691 172.14 167.747 172.14C168.23 172.047 168.546 171.564 168.453 171.08C168.1 169.352 167.71 167.586 167.282 165.82C167.171 165.337 166.687 165.039 166.186 165.151C165.702 165.263 165.405 165.764 165.516 166.248L165.498 166.229ZM167.635 176.657C167.933 178.423 168.174 180.188 168.397 181.917C168.453 182.382 168.844 182.716 169.29 182.716C169.327 182.716 169.364 182.716 169.401 182.716C169.903 182.661 170.256 182.214 170.182 181.713C169.977 179.947 169.717 178.181 169.42 176.378C169.345 175.895 168.862 175.541 168.379 175.634C167.877 175.709 167.561 176.173 167.635 176.675V176.657ZM50.0128 25.6323C48.4329 24.8144 46.8344 23.9966 45.2172 23.1973C44.7711 22.9742 44.2321 23.1601 44.0091 23.6062C43.786 24.0523 43.9719 24.5914 44.418 24.8144C46.0165 25.6137 47.6151 26.413 49.1764 27.2308C49.3065 27.3052 49.4552 27.3238 49.5854 27.3238C49.9013 27.3238 50.2173 27.1379 50.3846 26.8405C50.6077 26.3944 50.4404 25.8553 49.9943 25.6137L50.0128 25.6323ZM162.635 155.969C163.174 157.679 163.676 159.389 164.159 161.08C164.271 161.471 164.643 161.731 165.033 161.731C165.107 161.731 165.2 161.731 165.275 161.694C165.758 161.564 166.037 161.062 165.907 160.578C165.423 158.868 164.922 157.158 164.364 155.43C164.215 154.946 163.713 154.686 163.23 154.835C162.747 154.984 162.487 155.485 162.635 155.969ZM168.918 187.196C169.048 188.98 169.141 190.765 169.197 192.493C169.197 192.977 169.606 193.367 170.108 193.367H170.126C170.628 193.367 171.018 192.94 171 192.438C170.944 190.672 170.851 188.869 170.721 187.047C170.684 186.545 170.238 186.174 169.754 186.211C169.253 186.248 168.881 186.675 168.918 187.177V187.196ZM160.944 150.931C161.074 151.303 161.427 151.545 161.799 151.545C161.892 151.545 162.003 151.545 162.096 151.489C162.561 151.322 162.821 150.801 162.654 150.337C162.078 148.664 161.446 146.972 160.795 145.281C160.609 144.816 160.089 144.575 159.624 144.76C159.159 144.946 158.918 145.467 159.104 145.931C159.754 147.604 160.349 149.277 160.944 150.931ZM142.486 112.604C142.654 112.883 142.951 113.031 143.248 113.031C143.416 113.031 143.583 112.994 143.732 112.901C144.159 112.641 144.289 112.083 144.029 111.656C143.1 110.15 142.133 108.626 141.148 107.12C140.869 106.693 140.312 106.581 139.903 106.86C139.475 107.139 139.364 107.697 139.642 108.106C140.628 109.611 141.576 111.098 142.505 112.604H142.486ZM152.765 131.284C152.914 131.6 153.249 131.786 153.583 131.786C153.713 131.786 153.843 131.749 153.973 131.693C154.42 131.47 154.605 130.931 154.401 130.485C153.62 128.887 152.821 127.288 152.003 125.671C151.78 125.225 151.223 125.058 150.776 125.281C150.33 125.504 150.163 126.061 150.386 126.507C151.204 128.106 152.003 129.686 152.765 131.266V131.284ZM134.642 241.769C132.951 241.769 131.204 241.639 129.419 241.416C128.936 241.36 128.471 241.713 128.415 242.197C128.36 242.699 128.713 243.145 129.196 243.2C131.055 243.424 132.876 243.554 134.642 243.554C135.144 243.554 135.553 243.145 135.553 242.661C135.553 242.16 135.163 241.751 134.661 241.751L134.642 241.769ZM104.512 232.977C102.988 232.178 101.426 231.323 99.8649 230.412C99.4374 230.171 98.8797 230.319 98.6381 230.747C98.3964 231.174 98.5451 231.732 98.9726 231.974C100.571 232.903 102.151 233.758 103.694 234.576C103.824 234.65 103.973 234.669 104.103 234.669C104.419 234.669 104.735 234.483 104.902 234.185C105.125 233.739 104.958 233.2 104.512 232.959V232.977ZM154.085 235.598C152.71 236.658 151.26 237.587 149.717 238.386C149.271 238.609 149.104 239.167 149.327 239.613C149.494 239.929 149.81 240.096 150.126 240.096C150.275 240.096 150.405 240.059 150.535 240.003C152.152 239.167 153.732 238.163 155.182 237.048C155.572 236.751 155.646 236.174 155.349 235.784C155.033 235.394 154.475 235.319 154.085 235.617V235.598ZM158.323 141.489C158.788 141.303 159.011 140.764 158.806 140.299C158.118 138.664 157.412 137.009 156.669 135.374C156.464 134.928 155.925 134.723 155.479 134.928C155.014 135.132 154.828 135.671 155.033 136.117C155.776 137.753 156.483 139.37 157.152 141.006C157.301 141.359 157.635 141.563 157.988 141.563C158.1 141.563 158.23 141.545 158.342 141.489H158.323ZM149.457 120.95C148.602 119.388 147.709 117.827 146.799 116.266C146.557 115.838 145.999 115.689 145.572 115.95C145.144 116.21 144.996 116.749 145.256 117.176C146.167 118.719 147.04 120.262 147.877 121.823C148.044 122.121 148.341 122.288 148.676 122.288C148.825 122.288 148.973 122.251 149.103 122.176C149.55 121.935 149.698 121.377 149.457 120.95ZM166.836 218.014C166.353 217.847 165.851 218.089 165.684 218.572C165.089 220.263 164.42 221.88 163.676 223.423C163.453 223.869 163.639 224.408 164.104 224.631C164.234 224.687 164.364 224.724 164.494 224.724C164.829 224.724 165.145 224.538 165.312 224.222C166.093 222.624 166.78 220.932 167.394 219.185C167.561 218.721 167.319 218.2 166.836 218.033V218.014ZM170.145 196.936C169.606 196.917 169.234 197.308 169.215 197.809C169.16 199.612 169.067 201.378 168.899 203.088C168.862 203.59 169.215 204.018 169.717 204.074C169.736 204.074 169.773 204.074 169.792 204.074C170.256 204.074 170.647 203.72 170.684 203.256C170.851 201.508 170.944 199.687 171 197.865C171 197.363 170.628 196.954 170.126 196.936H170.145ZM144.94 240.319C143.323 240.821 141.613 241.193 139.865 241.435C139.364 241.509 139.029 241.955 139.085 242.457C139.141 242.903 139.531 243.238 139.977 243.238C140.014 243.238 140.051 243.238 140.107 243.238C141.947 242.977 143.769 242.587 145.479 242.067C145.962 241.918 146.222 241.416 146.074 240.933C145.925 240.449 145.423 240.189 144.94 240.338V240.319ZM169.29 207.587C168.806 207.512 168.323 207.847 168.249 208.33C167.97 210.096 167.598 211.843 167.189 213.497C167.059 213.981 167.357 214.464 167.84 214.594C167.914 214.594 167.989 214.613 168.063 214.613C168.472 214.613 168.844 214.334 168.937 213.925C169.364 212.215 169.717 210.43 170.015 208.609C170.089 208.107 169.754 207.642 169.271 207.568L169.29 207.587ZM162.356 227.68C161.948 227.401 161.371 227.512 161.111 227.94C160.145 229.408 159.066 230.803 157.933 232.048C157.598 232.42 157.617 232.996 157.988 233.33C158.156 233.479 158.379 233.572 158.602 233.572C158.843 233.572 159.085 233.479 159.271 233.275C160.479 231.955 161.613 230.487 162.635 228.944C162.914 228.535 162.803 227.959 162.375 227.698L162.356 227.68ZM118.099 77.436C116.891 76.1163 115.664 74.8151 114.419 73.514C114.066 73.1608 113.508 73.1423 113.136 73.4954C112.783 73.8486 112.765 74.4062 113.118 74.778C114.363 76.0605 115.571 77.3616 116.761 78.6628C116.947 78.8487 117.189 78.9602 117.43 78.9602C117.653 78.9602 117.876 78.8858 118.044 78.7185C118.415 78.384 118.434 77.8078 118.099 77.436ZM114.177 237.345C112.579 236.713 110.943 236.026 109.307 235.282C108.861 235.078 108.322 235.282 108.099 235.728C107.895 236.174 108.099 236.713 108.545 236.918C110.218 237.68 111.891 238.386 113.527 239.037C113.638 239.074 113.75 239.093 113.861 239.093C114.215 239.093 114.568 238.87 114.698 238.516C114.884 238.052 114.642 237.531 114.177 237.345ZM110.014 71.2277C110.237 71.2277 110.478 71.1348 110.646 70.9675C110.999 70.6143 110.999 70.0381 110.646 69.685C109.382 68.421 108.099 67.1756 106.798 65.9303C106.445 65.5771 105.869 65.5957 105.516 65.9674C105.162 66.3206 105.181 66.8968 105.553 67.25C106.854 68.4768 108.118 69.7221 109.382 70.9675C109.549 71.1348 109.791 71.2277 110.014 71.2277ZM135.088 98.2355C134.791 97.8266 134.233 97.7337 133.824 98.0311C133.416 98.3285 133.323 98.8861 133.62 99.295C134.661 100.745 135.702 102.195 136.687 103.645C136.854 103.905 137.152 104.035 137.43 104.035C137.616 104.035 137.784 103.979 137.951 103.868C138.36 103.589 138.471 103.013 138.174 102.604C137.17 101.135 136.129 99.6668 135.07 98.217L135.088 98.2355ZM131.166 95.3731C131.352 95.3731 131.557 95.3173 131.705 95.1872C132.096 94.8898 132.189 94.3136 131.873 93.9232C130.795 92.5106 129.698 91.0979 128.564 89.6852C128.248 89.2949 127.691 89.2391 127.3 89.5365C126.91 89.8525 126.854 90.4102 127.151 90.8005C128.267 92.1946 129.363 93.6072 130.423 95.0013C130.609 95.2429 130.869 95.3545 131.148 95.3545L131.166 95.3731ZM124.27 240.487C122.616 240.115 120.906 239.65 119.177 239.111C118.694 238.962 118.192 239.223 118.044 239.706C117.895 240.189 118.155 240.691 118.638 240.84C120.404 241.397 122.17 241.862 123.88 242.253C123.954 242.253 124.01 242.271 124.085 242.271C124.493 242.271 124.865 241.992 124.958 241.565C125.07 241.081 124.754 240.598 124.27 240.487ZM121.687 81.4323C121.352 81.0606 120.776 81.0234 120.404 81.358C120.032 81.6926 119.995 82.2502 120.33 82.6405C121.501 83.9788 122.672 85.3357 123.806 86.6926C123.992 86.9157 124.233 87.0086 124.493 87.0086C124.698 87.0086 124.902 86.9343 125.07 86.8042C125.46 86.4882 125.497 85.9119 125.181 85.5216C124.047 84.1461 122.876 82.7892 121.687 81.4323Z" fill="#FF5722"/>
<path d="M11.2948 8.68042C6.8709 6.9146 1.14588 5.5577 0.755544 6.50567C0.383791 7.47223 5.47683 10.3905 9.90068 12.1563C10.3096 12.3236 10.6999 12.4723 11.0903 12.621C11.3133 13.2344 11.7966 14.5355 12.41 16.1712C12.3914 16.1712 12.3914 16.1341 12.3543 16.1155L11.1646 15.6508C11.0159 15.595 10.8487 15.688 10.7743 15.8552L10.3096 17.0077C10.2353 17.175 10.3096 17.3608 10.4583 17.4166L11.6479 17.8813C11.6479 17.8813 11.778 17.8813 11.8524 17.8813L13.2279 18.4389C13.7483 19.833 14.3059 21.3572 14.8635 22.8442L13.6926 22.3795C13.5439 22.3237 13.3765 22.4167 13.3022 22.584L12.8375 23.7364C12.7632 23.9037 12.8375 24.0896 12.9862 24.1453L14.1758 24.61C14.1758 24.61 14.306 24.61 14.3803 24.61L15.7186 25.1491C17.1499 28.9595 18.358 32.138 18.4324 32.2124C18.6369 32.4168 20.4213 33.0488 20.4213 33.0488C20.8302 33.2161 21.1833 33.309 21.2019 33.2533C21.2019 33.2161 20.7744 32.993 20.3841 32.8258L19.083 25.0933C19.4176 25.2048 19.6964 25.2234 19.7149 25.1491C19.7521 25.0375 19.4547 24.8331 19.0458 24.6658H19.0086L18.7484 23.123C19.0644 23.2159 19.3246 23.2531 19.3618 23.1602C19.399 23.0487 19.1016 22.8442 18.6927 22.6769L18.451 21.2828L18.5625 20.3163C18.9343 20.4464 19.2688 20.5022 19.306 20.3906C19.3432 20.2791 19.0458 20.0746 18.6368 19.9074H18.6183L18.8227 17.9557C19.1945 18.0858 19.5105 18.1229 19.5477 18.03C19.5848 17.9185 19.2874 17.714 18.8785 17.5467H18.8599L19.0458 15.7623C22.0384 16.9147 23.228 17.3423 25.4214 18.2159C27.6333 19.0895 29.8266 19.7772 31.7225 20.2791C32.5032 22.3423 34.0274 26.4874 34.0274 26.4874L35.2356 27.0822L36.072 21.1899C36.4996 21.2457 36.8527 21.2642 37.1129 21.2642C38.0609 21.5616 38.6557 21.7104 38.6929 21.636C38.7301 21.5431 38.2096 21.2457 37.3546 20.8367C37.1687 20.6694 36.8713 20.4464 36.4624 20.1862L39.9197 15.279L38.6371 14.8887C38.6371 14.8887 34.4363 16.9891 32.5218 17.9185C30.8675 17.0263 28.9158 16.0411 26.8526 15.0374C24.1016 13.9407 22.912 13.4389 20.4027 12.3979L21.4808 10.9853C21.8897 11.1526 22.2614 11.2083 22.2986 11.0968C22.3358 11.0039 22.0756 10.818 21.7038 10.6507L22.8934 9.08935H22.912C23.321 9.25664 23.6927 9.3124 23.7299 9.20088C23.7671 9.10794 23.5068 8.90347 23.1351 8.75477L23.7299 7.97409L24.8637 7.11906C25.2726 7.28635 25.6444 7.34211 25.6816 7.23059C25.7187 7.13765 25.5143 6.98895 25.2169 6.84025L26.4623 5.91087H26.4994C26.9083 6.09674 27.2801 6.13392 27.3173 6.04098C27.3545 5.94804 27.1314 5.78075 26.8154 5.63205L33.0795 0.910794C33.4698 1.05949 33.953 1.2082 33.9716 1.17102C33.9902 1.11526 33.6743 0.947969 33.2653 0.78068C33.2653 0.78068 31.5553 0 31.2579 0C31.1463 0 28.0794 1.48701 24.4362 3.27142L23.0979 2.73238C23.0979 2.73238 23.0235 2.60227 22.9678 2.58368L21.7781 2.11899C21.6294 2.06323 21.4622 2.15617 21.3878 2.32345L20.9231 3.47589C20.8488 3.64318 20.9232 3.82905 21.0719 3.88481L22.2428 4.34951C20.8116 5.05584 19.3618 5.76217 18.0235 6.43132L16.648 5.87369C16.648 5.87369 16.5736 5.74358 16.5179 5.72499L15.3282 5.2603C15.1795 5.20454 15.0123 5.29747 14.9379 5.46476L14.4732 6.6172C14.3989 6.78448 14.4733 6.97036 14.622 7.02612L15.8115 7.49082C15.8115 7.49082 15.8673 7.49082 15.8859 7.49082C14.3431 8.25291 13.1163 8.8663 12.5215 9.1637C12.1312 9.015 11.7408 8.84771 11.3319 8.68042H11.2948Z" fill="#FF5722"/>
</svg>
