<svg width="40" height="40" viewBox="0 0 40 40" fill="none" xmlns="http://www.w3.org/2000/svg">
<path fill-rule="evenodd" clip-rule="evenodd" d="M33.9987 15.2434L35.199 16.4434C36.1495 17.3768 36.6664 18.6435 36.6664 19.9768C36.683 21.3101 36.1662 22.5785 35.2325 23.5268C35.2214 23.539 35.2102 23.5498 35.199 23.5605C35.1935 23.5658 35.188 23.5713 35.1824 23.5768L33.9987 24.7601C33.5319 25.2268 33.265 25.8601 33.265 26.5285V28.2435C33.265 31.0101 31.0142 33.2618 28.2465 33.2618H26.5294C25.8624 33.2618 25.2289 33.5268 24.762 33.9935L23.5615 35.1935C22.5779 36.1785 21.294 36.6601 20.0102 36.6601C18.7265 36.6601 17.4427 36.1785 16.459 35.2118L15.2419 33.9935C14.775 33.5268 14.1415 33.2618 13.4746 33.2618H11.7573C8.98962 33.2618 6.73881 31.0101 6.73881 28.2435V26.5285C6.73881 25.8601 6.47204 25.2268 6.00521 24.7435L4.80477 23.5601C2.85406 21.6118 2.83739 18.4268 4.78809 16.4618L6.00521 15.2434C6.47204 14.7768 6.73881 14.1434 6.73881 13.4601V11.7601C6.73881 8.99344 8.98962 6.7451 11.7573 6.7451H13.4746C14.1415 6.7451 14.775 6.47677 15.2419 6.0101L16.4423 4.8101C18.393 2.8451 21.5775 2.8451 23.5449 4.7951L24.762 6.0101C25.2289 6.47677 25.8624 6.7451 26.5294 6.7451H28.2465C31.0142 6.7451 33.265 8.99344 33.265 11.7601V13.4784C33.265 14.1434 33.5319 14.7768 33.9987 15.2434ZM15.7087 25.7435C16.1089 25.7435 16.4757 25.5935 16.7424 25.3101L25.3122 16.7451C25.879 16.1784 25.879 15.2434 25.3122 14.6768C24.7454 14.1118 23.8284 14.1118 23.2615 14.6768L14.6917 23.2435C14.1248 23.8101 14.1248 24.7435 14.6917 25.3101C14.9584 25.5935 15.3252 25.7435 15.7087 25.7435ZM22.828 24.2768C22.828 25.0935 23.4782 25.7435 24.2952 25.7435C25.0954 25.7435 25.7457 25.0935 25.7457 24.2768C25.7457 23.4785 25.0954 22.8268 24.2952 22.8268C23.4782 22.8268 22.828 23.4785 22.828 24.2768ZM15.7254 14.2601C16.5257 14.2601 17.1759 14.9101 17.1759 15.7101C17.1759 16.5284 16.5257 17.1768 15.7254 17.1768C14.9251 17.1768 14.2582 16.5284 14.2582 15.7101C14.2582 14.9101 14.9251 14.2601 15.7254 14.2601Z" fill="#FF5722"/>
</svg>
